<?xml version="1.0" encoding="UTF-8"?>
<svg xmlns="http://www.w3.org/2000/svg" version="1.1" xmlns:xlink="http://www.w3.org/1999/xlink" viewBox="0 0 1920 1080">
  <!-- Generator: Adobe Illustrator 29.8.2, SVG Export Plug-In . SVG Version: 2.1.1 Build 3)  -->
  <defs>
    <style>
      .st0 {
        fill: none;
        stroke: #dd0b15;
        stroke-miterlimit: 10;
      }

      .st1 {
        fill: url(#Gradiente_sem_nome_25);
      }

      .st2 {
        fill: url(#Gradiente_sem_nome_251);
      }

      .st3 {
        fill: url(#Gradiente_sem_nome_12);
      }

      .st4 {
        fill: url(#Gradiente_sem_nome_254);
      }

      .st5 {
        fill: #6f6f6d;
      }

      .st6 {
        fill: url(#Gradiente_sem_nome_252);
      }

      .st7 {
        fill: url(#Gradiente_sem_nome_4);
      }

      .st8 {
        display: none;
      }

      .st9 {
        fill: url(#Gradiente_sem_nome_253);
      }

      .st10 {
        fill: #2e8b87;
      }
    </style>
    <linearGradient id="Gradiente_sem_nome_4" data-name="Gradiente sem nome 4" x1="7.66" y1="525.81" x2="488.29" y2="525.81" gradientUnits="userSpaceOnUse">
      <stop offset="0" stop-color="#174f75"/>
      <stop offset="1" stop-color="#359781"/>
    </linearGradient>
    <radialGradient id="Gradiente_sem_nome_12" data-name="Gradiente sem nome 12" cx="248.46" cy="517.5" fx="248.46" fy="517.5" r="104.67" gradientUnits="userSpaceOnUse">
      <stop offset="0" stop-color="#174f75"/>
      <stop offset=".23" stop-color="#1b5a76"/>
      <stop offset=".65" stop-color="#28787b"/>
      <stop offset="1" stop-color="#359781"/>
    </radialGradient>
    <radialGradient id="Gradiente_sem_nome_25" data-name="Gradiente sem nome 25" cx="643.77" cy="486.46" fx="643.77" fy="486.46" r="98.66" gradientUnits="userSpaceOnUse">
      <stop offset="0" stop-color="#174f75"/>
      <stop offset=".99" stop-color="#184f75"/>
      <stop offset="1" stop-color="#194f75"/>
    </radialGradient>
    <radialGradient id="Gradiente_sem_nome_251" data-name="Gradiente sem nome 25" cx="834.43" cy="515.16" fx="834.43" fy="515.16" r="71.93" xlink:href="#Gradiente_sem_nome_25"/>
    <radialGradient id="Gradiente_sem_nome_252" data-name="Gradiente sem nome 25" cx="1004.02" cy="515.09" fx="1004.02" fy="515.09" r="72.8" xlink:href="#Gradiente_sem_nome_25"/>
    <radialGradient id="Gradiente_sem_nome_253" data-name="Gradiente sem nome 25" cx="1161.36" cy="514.97" fx="1161.36" fy="514.97" r="69.12" xlink:href="#Gradiente_sem_nome_25"/>
    <radialGradient id="Gradiente_sem_nome_254" data-name="Gradiente sem nome 25" cx="1311.4" cy="514.97" fx="1311.4" fy="514.97" r="72.6" xlink:href="#Gradiente_sem_nome_25"/>
  </defs>
  <g id="tipografia">
    <path class="st7" d="M486.31,529.56c-4.37,9.61-14.22,12.91-16.91,13.81-4.36,1.47-9.29,1.46-18.95,1.37-6.65-.06-12.18-.43-16.08-.76-.4,39.21-.8,78.43-1.2,117.63-.69,4.32-3.48,18.18-15.76,29.4-9.96,9.11-20.85,11.64-25.47,12.43-22.17,2.89-52.23,4.12-86.7-2.42-16.53-3.13-31.14-7.5-43.66-12.12,7.68-6.07,15.36-12.13,23.05-18.19,16.79,2.62,30.97,4.18,41.52,5.15,11.43,1.04,21.41,1.14,41.33,1.31,15.35.14,22.83-.18,29.01-5.56,5.32-4.63,7.33-11.01,8.18-15.46.4-46.89.81-93.78,1.21-140.67l52.76.62c-22.03-15.36-44.06-30.73-66.09-46.08-1.9-1.08-5.5-3.47-8.34-7.88-3.24-5.03-3.72-9.93-3.79-12.12-.2-24.01-.4-48.01-.61-72-9.4-.2-18.8-.4-28.2-.61-.1,19.96-.2,39.91-.3,59.87-27.69-18.8-55.38-37.59-83.07-56.39-2.2-1.64-9.58-6.73-20.21-6.46-9.65.24-16.3,4.75-18.59,6.46l-190.99,135.22c17.37.2,34.75.4,52.14.61-1.91,69.47-1.75,120.91-.2,135,.57,5.19,1.96,11.11,6.27,16.17,4.52,5.31,10.44,7.5,13.94,8.48,24.32.01,48.65.01,72.96.02,16.39-1.18,37.75-5.3,59.21-17.19,6.34-3.53,22.2-12.99,33.35-30.53,7.06-11.13,6.72-16.81,5.45-20.41-1.86-5.27-6.72-8.86-11.32-10.1-8.23-2.23-18,2.36-23.24,11.72-2.87-8.83-11.13-14.19-19-13.13-8.76,1.18-12.87,9.71-13.14,10.31-.12,4.1.26,9.94,2.62,16.37,5.36,14.57,17.05,21.82,21.03,24.04-7.56,3.75-15.13,7.49-22.68,11.24-5.71-5.15-14.17-14.08-20.38-27.4-3.5-7.53-6.25-13.41-5.85-21.23.69-14.05,11.19-28.89,26.87-33.75,16.97-5.25,31.3,3.88,33.38,5.25,2.26-1.59,12.59-8.49,26.25-6.26,18.88,3.08,26.75,20.79,27.29,22.03,1.51,4.08,4.84,14.74,1.82,27.89-1.84,7.97-5.87,15.14-15.16,25.47-21.04,23.38-44.44,34.93-49.11,37.19-20.92,10.08-40.63,14.06-55.78,15.55-12.82,1.06-26.74,1.69-41.63,1.61-13.22-.06-25.64-.66-37.19-1.61-4.01-.47-17.69-2.62-29.1-14.34-10.56-10.85-12.78-23.32-13.35-27.49-.39-39.35-.78-78.69-1.18-118.04-10.52-.2-21.04-.4-31.56-.61-12.13-1.78-21.54-10.81-23.25-21.82-1.97-12.79,7.39-21.98,8.29-22.83,49.66-35.7,99.3-71.42,148.96-107.13,19.2-13.13,38.4-26.26,57.6-39.41,4.93-2.3,13.04-5.32,23.44-5.85,13.86-.71,24.56,3.37,29.92,5.85,16.36,11.32,32.74,22.64,49.11,33.96-.38-4.63-.58-8.49-.71-11.32-.27-6.29-.12-7.61.31-9.1,1.34-4.64,4.49-7.49,6.16-9,4.1-3.7,8.54-5.15,11.11-5.76,7.12-1.1,15.6-1.9,25.16-1.82,9.45.08,17.82,1.02,24.86,2.22,1.8.59,4.55,1.71,7.37,3.85,0,0,3.22,2.42,5.76,6.06,3.69,5.28,5.69,38.68,3.34,84.39,14.95,10.18,36.56,25.17,61.54,43.55,3.7,2.72,11.28,8.24,15.16,18.19,1.65,4.24,5.2,13.33.99,22.56Z"/>
    <path class="st3" d="M368.7,580.76c.08,1.54.33,9.5-5.7,16.12-5.02,5.49-11.26,6.65-13.11,6.92h-32.93c-1.02-3.68-2.6-8.16-5.06-12.99-2.43-4.8-5.12-8.68-7.47-11.67h39.61v-53.34h-68.71v-69.95h-54.57v69.95h-67.91l.4,52.93c13.46-.13,26.94-.27,40.42-.4-2.98,3.02-6.91,7.72-10.01,14.3-1.95,4.17-3.08,8.01-3.73,11.17h-35.17c-2.24-.77-5.88-2.35-9.45-5.56-4.18-3.76-6.2-7.91-7.12-10.21v-70.53c.18-1.44,1.14-7.96,6.97-12.79,6.33-5.25,13.6-4.54,14.85-4.39l47.29.81v-49.72c.2-1.66,1.26-9.11,7.88-14.76,6.51-5.55,13.86-5.51,15.57-5.45h62.65c1.76.45,6.52,1.94,10.46,6.52,3.93,4.55,4.7,9.46,4.9,11.26v51.75h51.12c1.65.19,8.23,1.13,13.41,6.87,5.72,6.35,5.49,13.89,5.4,15.35v57.8Z"/>
    <g>
      <path class="st5" d="M577.4,690.18c-6.81,0-12.57-1.29-17.26-3.87-4.69-2.58-8.29-6.22-10.78-10.91-2.49-4.69-3.74-10.2-3.74-16.52s1.29-12.11,3.86-16.86c2.58-4.75,6.27-8.42,11.08-11,4.81-2.58,10.56-3.87,17.26-3.87,2.86,0,5.61.25,8.24.74,2.63.49,5.07,1.25,7.3,2.26,2.23,1.01,4.15,2.22,5.75,3.61l-4.12,10.52c-2.69-1.91-5.41-3.32-8.16-4.22-2.75-.9-5.72-1.35-8.93-1.35-6.07,0-10.65,1.72-13.74,5.17-3.09,3.45-4.64,8.45-4.64,15s1.56,11.5,4.68,14.87c3.12,3.36,7.74,5.04,13.87,5.04,2,0,4.11-.22,6.31-.65,2.2-.43,4.36-1,6.48-1.69l-2.49,5.56v-16.78h-13.05v-9.74h24.04v30.16c-1.95.93-4.14,1.73-6.57,2.39-2.43.67-4.97,1.19-7.6,1.57-2.63.38-5.24.56-7.81.56Z"/>
      <path class="st5" d="M631.93,690.18c-4.98,0-9.26-.9-12.84-2.69-3.58-1.8-6.33-4.36-8.24-7.69-1.92-3.33-2.88-7.29-2.88-11.87s.93-8.24,2.79-11.52c1.86-3.27,4.42-5.87,7.68-7.78,3.26-1.91,6.96-2.87,11.08-2.87s7.76.88,10.73,2.65c2.98,1.77,5.28,4.29,6.91,7.56,1.63,3.28,2.45,7.12,2.45,11.52v3.3h-30.91v-6.78h21.55l-1.37,1.22c0-3.53-.76-6.23-2.28-8.08-1.52-1.85-3.68-2.78-6.48-2.78-2.12,0-3.92.49-5.41,1.48-1.49.99-2.63,2.42-3.43,4.3-.8,1.88-1.2,4.13-1.2,6.74v.7c0,2.96.44,5.39,1.33,7.3.89,1.91,2.25,3.32,4.08,4.22,1.83.9,4.06,1.35,6.7,1.35,2.29,0,4.61-.35,6.96-1.04,2.35-.7,4.46-1.77,6.35-3.22l3.43,8.78c-2.12,1.56-4.72,2.83-7.81,3.78-3.09.96-6.15,1.43-9.19,1.43Z"/>
      <path class="st5" d="M673.31,690.18c-2.46,0-4.84-.19-7.13-.56-2.29-.38-4.38-.91-6.27-1.61-1.89-.7-3.55-1.59-4.98-2.7l3.09-8.43c1.43.81,2.99,1.56,4.68,2.26,1.69.7,3.45,1.22,5.28,1.56,1.83.35,3.63.52,5.41.52,2.4,0,4.18-.4,5.32-1.22,1.14-.81,1.72-1.85,1.72-3.13,0-1.1-.37-1.93-1.12-2.48-.74-.55-1.83-.97-3.26-1.26l-9.1-1.65c-3.49-.7-6.2-2.03-8.11-4-1.92-1.97-2.88-4.52-2.88-7.65,0-2.96.8-5.48,2.4-7.56,1.6-2.09,3.82-3.69,6.65-4.82,2.83-1.13,6.05-1.7,9.66-1.7,2.06,0,4.06.17,6.01.52,1.95.35,3.79.87,5.54,1.56,1.75.7,3.33,1.59,4.77,2.7l-3.35,8.43c-1.09-.81-2.38-1.53-3.86-2.17-1.49-.64-3-1.13-4.55-1.48-1.55-.35-2.98-.52-4.29-.52-2.63,0-4.54.41-5.71,1.22-1.17.81-1.76,1.86-1.76,3.13,0,.99.34,1.81,1.03,2.48.69.67,1.72,1.12,3.09,1.35l9.1,1.56c3.66.7,6.47,1.99,8.41,3.87,1.95,1.88,2.92,4.42,2.92,7.61,0,3.01-.77,5.58-2.32,7.69-1.55,2.12-3.72,3.72-6.53,4.83-2.81,1.1-6.1,1.65-9.87,1.65Z"/>
      <path class="st5" d="M719.68,690.18c-6.01,0-10.46-1.46-13.35-4.39-2.89-2.93-4.34-7.26-4.34-13v-16.43h-7.99v-9.65h7.99v-12.6h12.96v12.6h12.36v9.65h-12.36v15.91c0,2.43.54,4.25,1.63,5.43,1.09,1.19,2.86,1.78,5.32,1.78.69,0,1.46-.07,2.32-.22.86-.14,1.8-.36,2.83-.65l1.8,9.56c-1.15.64-2.56,1.13-4.25,1.48-1.69.35-3.33.52-4.94.52Z"/>
      <path class="st5" d="M748.01,690.18c-3.21,0-6.01-.59-8.41-1.78-2.4-1.19-4.29-2.81-5.67-4.87-1.37-2.06-2.06-4.42-2.06-7.08,0-3.13.8-5.59,2.4-7.39,1.6-1.8,4.19-3.1,7.77-3.91,3.58-.81,8.34-1.22,14.3-1.22h4.55v6.78h-4.46c-2.18,0-4.04.09-5.58.26-1.55.17-2.81.48-3.78.91-.97.43-1.67.99-2.1,1.65s-.64,1.46-.64,2.39c0,1.57.56,2.87,1.67,3.91s2.7,1.57,4.77,1.57c1.66,0,3.15-.38,4.46-1.13,1.32-.75,2.35-1.79,3.09-3.13.74-1.33,1.12-2.93,1.12-4.78v-9.91c0-2.55-.57-4.36-1.72-5.43-1.15-1.07-3.12-1.61-5.92-1.61-2.23,0-4.62.35-7.17,1.04-2.55.7-5.05,1.8-7.51,3.3l-3.52-8.69c1.49-1.04,3.28-1.97,5.37-2.78,2.09-.81,4.32-1.43,6.7-1.87,2.37-.43,4.59-.65,6.65-.65,4.41,0,8.06.65,10.95,1.96,2.89,1.3,5.04,3.32,6.44,6.04,1.4,2.72,2.1,6.17,2.1,10.34v25.21h-12.11v-8.52h.6c-.34,1.91-1.07,3.56-2.19,4.96-1.12,1.39-2.52,2.48-4.21,3.26-1.69.78-3.65,1.17-5.88,1.17ZM741.91,638.89l-6.18-.44c.23-4.29,1.34-7.62,3.35-10,2-2.38,4.55-3.56,7.64-3.56,1.26,0,2.43.25,3.52.74,1.09.49,2.32,1.2,3.69,2.13,1.2.87,2.17,1.48,2.92,1.83.74.35,1.49.52,2.23.52,1.49,0,2.66-.48,3.52-1.43.86-.96,1.4-2.39,1.63-4.3l6.18.52c-.23,4.23-1.33,7.55-3.31,9.95-1.97,2.41-4.51,3.61-7.6,3.61-1.2,0-2.35-.23-3.43-.7-1.09-.46-2.38-1.22-3.86-2.26-1.15-.87-2.09-1.46-2.83-1.78-.74-.32-1.52-.48-2.32-.48-1.49,0-2.65.48-3.48,1.43-.83.96-1.39,2.36-1.67,4.22Z"/>
      <path class="st5" d="M801.76,690.18c-4.52,0-8.44-.9-11.76-2.69-3.32-1.8-5.91-4.36-7.77-7.69-1.86-3.33-2.79-7.29-2.79-11.87s.93-8.45,2.79-11.78c1.86-3.33,4.45-5.9,7.77-7.69,3.32-1.79,7.24-2.69,11.76-2.69s8.46.9,11.81,2.69c3.35,1.8,5.95,4.36,7.81,7.69,1.86,3.33,2.79,7.26,2.79,11.78s-.93,8.53-2.79,11.87c-1.86,3.33-4.46,5.9-7.81,7.69-3.35,1.8-7.29,2.69-11.81,2.69ZM801.76,680.44c2.8,0,5.07-1.01,6.78-3.04,1.72-2.03,2.58-5.19,2.58-9.48s-.86-7.35-2.58-9.34c-1.72-2-3.98-3-6.78-3s-4.98,1-6.7,3c-1.72,2-2.58,5.12-2.58,9.34s.86,7.45,2.58,9.48c1.72,2.03,3.95,3.04,6.7,3.04Z"/>
      <path class="st5" d="M855.42,638.37v-12.17h14.08v12.17h-14.08ZM855.94,689.31v-42.6h12.97v42.6h-12.97Z"/>
      <path class="st5" d="M878.95,689.31v-42.6h12.71v8h-.94c1.26-2.9,3.21-5.11,5.84-6.65,2.63-1.54,5.58-2.3,8.84-2.3,3.43,0,6.23.65,8.37,1.96,2.15,1.3,3.76,3.29,4.85,5.95,1.09,2.67,1.63,6.03,1.63,10.08v25.56h-12.97v-25.04c0-1.97-.23-3.56-.69-4.78-.46-1.22-1.16-2.11-2.1-2.69-.94-.58-2.13-.87-3.56-.87-1.83,0-3.42.39-4.77,1.17-1.35.78-2.39,1.88-3.13,3.3-.74,1.42-1.12,3.12-1.12,5.09v23.82h-12.97Z"/>
      <path class="st5" d="M950.73,690.18c-6.01,0-10.46-1.46-13.35-4.39-2.89-2.93-4.34-7.26-4.34-13v-16.43h-7.99v-9.65h7.99v-12.6h12.96v12.6h12.36v9.65h-12.36v15.91c0,2.43.54,4.25,1.63,5.43,1.09,1.19,2.86,1.78,5.32,1.78.69,0,1.46-.07,2.32-.22.86-.14,1.8-.36,2.83-.65l1.8,9.56c-1.15.64-2.56,1.13-4.25,1.48-1.69.35-3.33.52-4.94.52Z"/>
      <path class="st5" d="M986.19,690.18c-4.98,0-9.26-.9-12.84-2.69-3.58-1.8-6.33-4.36-8.24-7.69-1.92-3.33-2.88-7.29-2.88-11.87s.93-8.24,2.79-11.52c1.86-3.27,4.42-5.87,7.68-7.78,3.26-1.91,6.96-2.87,11.08-2.87s7.76.88,10.73,2.65c2.98,1.77,5.28,4.29,6.91,7.56,1.63,3.28,2.45,7.12,2.45,11.52v3.3h-30.91v-6.78h21.55l-1.37,1.22c0-3.53-.76-6.23-2.28-8.08-1.52-1.85-3.68-2.78-6.48-2.78-2.12,0-3.92.49-5.41,1.48-1.49.99-2.63,2.42-3.43,4.3-.8,1.88-1.2,4.13-1.2,6.74v.7c0,2.96.44,5.39,1.33,7.3.89,1.91,2.25,3.32,4.08,4.22s4.06,1.35,6.7,1.35c2.29,0,4.61-.35,6.96-1.04,2.35-.7,4.46-1.77,6.35-3.22l3.44,8.78c-2.12,1.56-4.72,2.83-7.81,3.78-3.09.96-6.15,1.43-9.19,1.43Z"/>
      <path class="st5" d="M1027.06,690.18c-5.38,0-9.33-1.42-11.85-4.26-2.52-2.84-3.78-7.1-3.78-12.78v-45.12h12.96v44.59c0,1.51.23,2.78.69,3.83.46,1.04,1.13,1.81,2.02,2.3.89.49,2.02.74,3.39.74.63,0,1.25-.01,1.85-.04.6-.03,1.16-.13,1.67-.3l-.09,10.17c-1.15.29-2.26.51-3.35.65-1.09.14-2.26.22-3.52.22Z"/>
      <path class="st5" d="M1039.51,638.37v-12.17h14.08v12.17h-14.08ZM1040.03,689.31v-42.6h12.96v42.6h-12.96Z"/>
      <path class="st5" d="M1083.3,705.83c-4.01,0-7.79-.42-11.33-1.26-3.55-.84-6.61-2.19-9.19-4.04l3.43-9.04c1.54,1.04,3.23,1.9,5.07,2.56,1.83.67,3.68,1.17,5.54,1.52,1.86.35,3.65.52,5.37.52,3.66,0,6.41-.84,8.24-2.52,1.83-1.68,2.75-4.26,2.75-7.74v-6.69h.77c-.92,2.78-2.69,4.99-5.32,6.61-2.63,1.62-5.61,2.43-8.93,2.43-3.78,0-7.07-.88-9.88-2.65-2.8-1.77-4.98-4.23-6.53-7.39-1.54-3.16-2.32-6.88-2.32-11.17s.77-7.94,2.32-11.13c1.55-3.19,3.72-5.66,6.53-7.43,2.8-1.77,6.1-2.65,9.88-2.65,3.38,0,6.37.83,8.97,2.48,2.6,1.65,4.31,3.78,5.11,6.39h-.6v-7.91h12.62v37.55c0,4.81-.86,8.81-2.58,12-1.72,3.19-4.25,5.58-7.6,7.17-3.35,1.59-7.46,2.39-12.32,2.39ZM1083.56,678.44c2.92,0,5.24-1.03,6.96-3.09,1.72-2.06,2.58-4.85,2.58-8.39s-.86-6.39-2.58-8.39c-1.72-2-4.04-3-6.96-3s-5.24,1-6.96,3c-1.72,2-2.58,4.8-2.58,8.39s.86,6.33,2.58,8.39c1.72,2.06,4.04,3.09,6.96,3.09Z"/>
      <path class="st5" d="M1137.73,690.18c-4.98,0-9.26-.9-12.84-2.69-3.58-1.8-6.33-4.36-8.24-7.69-1.92-3.33-2.88-7.29-2.88-11.87s.93-8.24,2.79-11.52c1.86-3.27,4.42-5.87,7.68-7.78,3.26-1.91,6.96-2.87,11.08-2.87s7.76.88,10.73,2.65c2.98,1.77,5.28,4.29,6.91,7.56,1.63,3.28,2.45,7.12,2.45,11.52v3.3h-30.91v-6.78h21.55l-1.37,1.22c0-3.53-.76-6.23-2.28-8.08-1.52-1.85-3.68-2.78-6.48-2.78-2.12,0-3.92.49-5.41,1.48-1.49.99-2.63,2.42-3.43,4.3-.8,1.88-1.2,4.13-1.2,6.74v.7c0,2.96.44,5.39,1.33,7.3.89,1.91,2.25,3.32,4.08,4.22,1.83.9,4.06,1.35,6.7,1.35,2.29,0,4.61-.35,6.95-1.04,2.35-.7,4.46-1.77,6.35-3.22l3.43,8.78c-2.12,1.56-4.72,2.83-7.81,3.78-3.09.96-6.15,1.43-9.19,1.43Z"/>
      <path class="st5" d="M1162.98,689.31v-42.6h12.71v8h-.94c1.26-2.9,3.21-5.11,5.84-6.65,2.63-1.54,5.58-2.3,8.84-2.3,3.43,0,6.22.65,8.37,1.96,2.15,1.3,3.76,3.29,4.85,5.95,1.09,2.67,1.63,6.03,1.63,10.08v25.56h-12.97v-25.04c0-1.97-.23-3.56-.69-4.78-.46-1.22-1.16-2.11-2.1-2.69-.94-.58-2.13-.87-3.56-.87-1.83,0-3.42.39-4.77,1.17-1.35.78-2.39,1.88-3.13,3.3-.75,1.42-1.12,3.12-1.12,5.09v23.82h-12.96Z"/>
      <path class="st5" d="M1234.76,690.18c-6.01,0-10.46-1.46-13.35-4.39-2.89-2.93-4.34-7.26-4.34-13v-16.43h-7.99v-9.65h7.99v-12.6h12.96v12.6h12.36v9.65h-12.36v15.91c0,2.43.54,4.25,1.63,5.43,1.09,1.19,2.86,1.78,5.32,1.78.69,0,1.46-.07,2.32-.22s1.8-.36,2.83-.65l1.8,9.56c-1.15.64-2.56,1.13-4.25,1.48-1.69.35-3.34.52-4.94.52Z"/>
      <path class="st5" d="M1270.22,690.18c-4.98,0-9.26-.9-12.84-2.69-3.58-1.8-6.33-4.36-8.24-7.69-1.92-3.33-2.88-7.29-2.88-11.87s.93-8.24,2.79-11.52c1.86-3.27,4.42-5.87,7.68-7.78,3.26-1.91,6.96-2.87,11.08-2.87s7.76.88,10.73,2.65c2.98,1.77,5.28,4.29,6.91,7.56,1.63,3.28,2.45,7.12,2.45,11.52v3.3h-30.91v-6.78h21.55l-1.37,1.22c0-3.53-.76-6.23-2.28-8.08-1.52-1.85-3.68-2.78-6.48-2.78-2.12,0-3.92.49-5.41,1.48-1.49.99-2.63,2.42-3.43,4.3-.8,1.88-1.2,4.13-1.2,6.74v.7c0,2.96.44,5.39,1.33,7.3.89,1.91,2.25,3.32,4.08,4.22,1.83.9,4.06,1.35,6.7,1.35,2.29,0,4.61-.35,6.95-1.04,2.35-.7,4.46-1.77,6.35-3.22l3.43,8.78c-2.12,1.56-4.72,2.83-7.81,3.78-3.09.96-6.15,1.43-9.19,1.43Z"/>
      <path class="st5" d="M1341.23,690.18c-4.98,0-9.26-.9-12.84-2.69-3.58-1.8-6.33-4.36-8.24-7.69-1.92-3.33-2.88-7.29-2.88-11.87s.93-8.24,2.79-11.52c1.86-3.27,4.42-5.87,7.68-7.78,3.26-1.91,6.96-2.87,11.08-2.87s7.76.88,10.73,2.65c2.98,1.77,5.28,4.29,6.91,7.56,1.63,3.28,2.45,7.12,2.45,11.52v3.3h-30.91v-6.78h21.55l-1.37,1.22c0-3.53-.76-6.23-2.28-8.08-1.52-1.85-3.68-2.78-6.48-2.78-2.12,0-3.92.49-5.41,1.48-1.49.99-2.63,2.42-3.43,4.3-.8,1.88-1.2,4.13-1.2,6.74v.7c0,2.96.44,5.39,1.33,7.3.89,1.91,2.25,3.32,4.08,4.22,1.83.9,4.06,1.35,6.7,1.35,2.29,0,4.61-.35,6.95-1.04,2.35-.7,4.46-1.77,6.35-3.22l3.43,8.78c-2.12,1.56-4.72,2.83-7.81,3.78-3.09.96-6.15,1.43-9.19,1.43Z"/>
      <path class="st5" d="M1366.64,689.31v-42.6h12.71v8h-.94c.8-1.85,1.85-3.45,3.13-4.78s2.85-2.36,4.68-3.09c1.83-.72,3.83-1.09,6.01-1.09,3.26,0,5.98.78,8.16,2.35,2.17,1.57,3.72,3.94,4.64,7.13h-1.2c1.26-2.9,3.21-5.2,5.84-6.91,2.63-1.71,5.61-2.56,8.93-2.56s5.87.64,7.99,1.91c2.12,1.28,3.69,3.26,4.72,5.96,1.03,2.69,1.55,6.07,1.55,10.13v25.56h-12.96v-25.12c0-2.9-.43-5-1.29-6.3-.86-1.3-2.4-1.96-4.64-1.96-1.55,0-2.91.38-4.08,1.13-1.17.75-2.08,1.88-2.71,3.39-.63,1.51-.94,3.33-.94,5.48v23.38h-12.96v-25.12c0-2.9-.46-5-1.37-6.3-.92-1.3-2.4-1.96-4.46-1.96-1.6,0-2.99.38-4.16,1.13-1.17.75-2.08,1.88-2.71,3.39-.63,1.51-.94,3.33-.94,5.48v23.38h-12.97Z"/>
      <path class="st5" d="M1467.79,689.31v-61.29h13.31v24.69h28.08v-24.69h13.39v61.29h-13.39v-25.47h-28.08v25.47h-13.31Z"/>
      <path class="st5" d="M1553.91,690.18c-4.52,0-8.44-.9-11.76-2.69-3.32-1.8-5.91-4.36-7.77-7.69-1.86-3.33-2.79-7.29-2.79-11.87s.93-8.45,2.79-11.78c1.86-3.33,4.45-5.9,7.77-7.69,3.32-1.79,7.24-2.69,11.76-2.69s8.46.9,11.81,2.69c3.35,1.8,5.95,4.36,7.81,7.69,1.86,3.33,2.79,7.26,2.79,11.78s-.93,8.53-2.79,11.87c-1.86,3.33-4.46,5.9-7.81,7.69-3.35,1.8-7.29,2.69-11.81,2.69ZM1553.91,680.44c2.8,0,5.07-1.01,6.78-3.04,1.72-2.03,2.58-5.19,2.58-9.48s-.86-7.35-2.58-9.34c-1.72-2-3.98-3-6.78-3s-4.98,1-6.7,3c-1.72,2-2.58,5.12-2.58,9.34s.86,7.45,2.58,9.48c1.72,2.03,3.95,3.04,6.7,3.04Z"/>
      <path class="st5" d="M1584.39,689.31v-42.6h12.71v8h-.94c.8-1.85,1.85-3.45,3.13-4.78s2.85-2.36,4.68-3.09c1.83-.72,3.83-1.09,6.01-1.09,3.26,0,5.98.78,8.16,2.35,2.17,1.57,3.72,3.94,4.64,7.13h-1.2c1.26-2.9,3.21-5.2,5.84-6.91,2.63-1.71,5.61-2.56,8.93-2.56s5.87.64,7.99,1.91c2.12,1.28,3.69,3.26,4.72,5.96,1.03,2.69,1.55,6.07,1.55,10.13v25.56h-12.96v-25.12c0-2.9-.43-5-1.29-6.3-.86-1.3-2.4-1.96-4.64-1.96-1.55,0-2.91.38-4.08,1.13-1.17.75-2.08,1.88-2.71,3.39-.63,1.51-.94,3.33-.94,5.48v23.38h-12.96v-25.12c0-2.9-.46-5-1.37-6.3-.92-1.3-2.4-1.96-4.46-1.96-1.6,0-2.99.38-4.16,1.13-1.17.75-2.08,1.88-2.71,3.39-.63,1.51-.94,3.33-.94,5.48v23.38h-12.97Z"/>
      <path class="st5" d="M1682.44,690.18c-4.98,0-9.26-.9-12.84-2.69-3.58-1.8-6.33-4.36-8.24-7.69-1.92-3.33-2.88-7.29-2.88-11.87s.93-8.24,2.79-11.52c1.86-3.27,4.42-5.87,7.68-7.78,3.26-1.91,6.96-2.87,11.08-2.87s7.76.88,10.73,2.65c2.98,1.77,5.28,4.29,6.91,7.56,1.63,3.28,2.45,7.12,2.45,11.52v3.3h-30.91v-6.78h21.55l-1.37,1.22c0-3.53-.76-6.23-2.28-8.08-1.52-1.85-3.68-2.78-6.48-2.78-2.12,0-3.92.49-5.41,1.48-1.49.99-2.63,2.42-3.43,4.3-.8,1.88-1.2,4.13-1.2,6.74v.7c0,2.96.44,5.39,1.33,7.3.89,1.91,2.25,3.32,4.08,4.22,1.83.9,4.06,1.35,6.7,1.35,2.29,0,4.61-.35,6.95-1.04,2.35-.7,4.46-1.77,6.35-3.22l3.43,8.78c-2.12,1.56-4.72,2.83-7.81,3.78-3.09.96-6.15,1.43-9.19,1.43Z"/>
      <path class="st5" d="M1761.95,690.18c-6.47,0-12.04-1.29-16.7-3.87-4.67-2.58-8.23-6.24-10.69-11-2.46-4.75-3.69-10.31-3.69-16.69s1.23-11.92,3.69-16.65c2.46-4.72,6.02-8.37,10.69-10.95,4.67-2.58,10.23-3.87,16.7-3.87,4.01,0,7.87.62,11.59,1.87,3.72,1.25,6.73,2.97,9.02,5.17l-4.21,10.69c-2.52-2.03-5.08-3.52-7.68-4.48-2.61-.96-5.34-1.43-8.2-1.43-5.72,0-10.06,1.71-13.01,5.13-2.95,3.42-4.42,8.26-4.42,14.52s1.47,11.19,4.42,14.6c2.95,3.42,7.28,5.13,13.01,5.13,2.86,0,5.59-.48,8.2-1.43,2.6-.96,5.17-2.45,7.68-4.48l4.21,10.69c-2.29,2.14-5.3,3.85-9.02,5.13-3.72,1.27-7.59,1.91-11.59,1.91Z"/>
      <path class="st5" d="M1802.91,690.18c-3.21,0-6.01-.59-8.42-1.78-2.4-1.19-4.29-2.81-5.67-4.87-1.37-2.06-2.06-4.42-2.06-7.08,0-3.13.8-5.59,2.4-7.39,1.6-1.8,4.19-3.1,7.77-3.91,3.58-.81,8.34-1.22,14.3-1.22h4.55v6.78h-4.46c-2.18,0-4.04.09-5.58.26-1.54.17-2.8.48-3.78.91-.97.43-1.67.99-2.1,1.65-.43.67-.64,1.46-.64,2.39,0,1.57.56,2.87,1.67,3.91s2.7,1.57,4.76,1.57c1.66,0,3.15-.38,4.46-1.13,1.32-.75,2.35-1.79,3.09-3.13.74-1.33,1.12-2.93,1.12-4.78v-9.91c0-2.55-.57-4.36-1.72-5.43-1.15-1.07-3.12-1.61-5.92-1.61-2.23,0-4.62.35-7.17,1.04-2.55.7-5.05,1.8-7.51,3.3l-3.52-8.69c1.49-1.04,3.28-1.97,5.37-2.78,2.09-.81,4.32-1.43,6.7-1.87,2.37-.43,4.59-.65,6.65-.65,4.41,0,8.06.65,10.95,1.96,2.89,1.3,5.04,3.32,6.44,6.04,1.4,2.72,2.1,6.17,2.1,10.34v25.21h-12.11v-8.52h.6c-.34,1.91-1.07,3.56-2.19,4.96-1.12,1.39-2.52,2.48-4.21,3.26-1.69.78-3.65,1.17-5.88,1.17Z"/>
      <path class="st5" d="M1836.39,689.31v-42.6h12.71v10.34h-.86c.69-3.48,2.19-6.14,4.51-8,2.32-1.85,5.42-2.92,9.32-3.22l3.61-.35.77,11.13-7.21.7c-3.26.29-5.68,1.25-7.25,2.87-1.58,1.62-2.36,3.97-2.36,7.04v22.08h-13.22Z"/>
      <path class="st5" d="M1892.89,690.18c-4.98,0-9.26-.9-12.84-2.69-3.58-1.8-6.33-4.36-8.24-7.69-1.92-3.33-2.88-7.29-2.88-11.87s.93-8.24,2.79-11.52c1.86-3.27,4.42-5.87,7.68-7.78,3.26-1.91,6.96-2.87,11.08-2.87s7.76.88,10.73,2.65c2.98,1.77,5.28,4.29,6.91,7.56,1.63,3.28,2.45,7.12,2.45,11.52v3.3h-30.91v-6.78h21.55l-1.37,1.22c0-3.53-.76-6.23-2.28-8.08-1.52-1.85-3.68-2.78-6.48-2.78-2.12,0-3.92.49-5.41,1.48-1.49.99-2.63,2.42-3.43,4.3-.8,1.88-1.2,4.13-1.2,6.74v.7c0,2.96.44,5.39,1.33,7.3.89,1.91,2.25,3.32,4.08,4.22,1.83.9,4.06,1.35,6.7,1.35,2.29,0,4.61-.35,6.95-1.04,2.35-.7,4.46-1.77,6.35-3.22l3.43,8.78c-2.12,1.56-4.72,2.83-7.81,3.78-3.09.96-6.15,1.43-9.19,1.43Z"/>
    </g>
    <path class="st1" d="M549.14,589.01c.3-68.36.6-136.73.9-205.09h52.54v77.95h83.09v-77.95h52.25c.16,68.36.31,136.73.47,205.09h-52.63c-.03-28.1-.06-56.21-.09-84.31h-83.09c.02,28.1.04,56.21.06,84.31h-53.49Z"/>
    <path class="st2" d="M819.86,588.64c-10.85,0-20.46-2.05-28.84-6.14-8.38-4.09-14.9-9.61-19.56-16.56-4.67-6.95-7-14.89-7-23.84,0-10.28,2.66-18.37,8-24.27,5.33-5.9,13.94-10.14,25.84-12.71,11.89-2.57,27.65-3.85,47.26-3.85h15.7v23.7h-15.7c-5.71,0-10.56.38-14.56,1.14-4,.76-7.33,1.71-9.99,2.85-2.67,1.14-4.62,2.62-5.85,4.43-1.24,1.81-1.86,4.05-1.86,6.71,0,4.38,1.52,7.99,4.57,10.85,3.04,2.86,7.61,4.28,13.7,4.28,4.57,0,8.71-1.04,12.42-3.14,3.71-2.09,6.71-5,8.99-8.71,2.28-3.71,3.43-8.04,3.43-12.99v-33.12c0-7.04-1.76-11.94-5.28-14.71-3.52-2.76-9.47-4.14-17.85-4.14-7.42,0-15.47,1.14-24.13,3.43-8.66,2.29-17.27,5.81-25.84,10.57l-13.13-33.41c4.95-3.43,11.14-6.47,18.56-9.14,7.42-2.66,15.28-4.76,23.56-6.28,8.28-1.52,15.94-2.28,22.98-2.28,15.61,0,28.5,2.28,38.69,6.85,10.18,4.57,17.8,11.47,22.84,20.7,5.04,9.24,7.57,21.08,7.57,35.55-.06,28.2-.13,56.4-.19,84.6h-47.02c-.06-10.12-.12-20.23-.19-30.35h1.71c-.95,5.9-3.14,11.09-6.57,15.56-3.43,4.48-7.9,7.99-13.42,10.56-5.52,2.57-11.8,3.85-18.84,3.85Z"/>
    <path class="st6" d="M985.76,588.64c-12.18,0-22.18-2.24-29.98-6.71-7.81-4.47-13.66-11.23-17.56-20.27-3.9-9.04-5.85-20.32-5.85-33.83.1-28.88.2-57.76.3-86.64h51.12c-.2,29.26-.4,58.52-.6,87.79,0,4.57.62,8.38,1.86,11.42,1.24,3.05,3.14,5.33,5.71,6.85,2.57,1.52,5.95,2.28,10.14,2.28,4.57,0,8.61-1.09,12.14-3.28,3.52-2.19,6.33-5.33,8.42-9.42,2.09-4.09,3.14-8.9,3.14-14.42-.08-27.07-.17-54.15-.25-81.22h50.69c.22,49.28.43,98.55.65,147.83h-50.69c.15-9.83.31-19.66.46-29.49h4.57c-4.19,9.33-10.04,16.52-17.56,21.56-7.52,5.04-16.42,7.57-26.7,7.57Z"/>
    <path class="st9" d="M1161.07,588.64c-8.76,0-17.04-.67-24.84-2-7.81-1.33-14.99-3.09-21.56-5.28-6.57-2.19-12.42-4.9-17.56-8.14l11.42-32.55c4.95,2.48,10.32,4.76,16.13,6.85,5.8,2.1,11.85,3.71,18.13,4.85,6.28,1.14,12.37,1.71,18.27,1.71,7.04,0,12.09-1,15.13-3,3.04-2,4.57-4.61,4.57-7.85,0-2.85-1-5.04-3-6.57-2-1.52-4.81-2.57-8.42-3.14l-31.69-4.85c-11.81-2.09-20.94-6.47-27.41-13.13-6.47-6.66-9.71-15.42-9.71-26.27,0-9.71,2.81-18.13,8.42-25.27,5.61-7.14,13.32-12.71,23.13-16.7,9.8-4,21.08-5.99,33.84-5.99,6.85,0,13.61.57,20.27,1.71,6.66,1.14,13.04,2.76,19.13,4.85,6.09,2.1,11.61,5.04,16.56,8.85l-12.28,31.98c-3.62-2.28-7.95-4.43-12.99-6.42-5.05-2-10.19-3.61-15.42-4.85-5.24-1.24-10.04-1.86-14.42-1.86-7.99,0-13.56,1.05-16.7,3.14-3.14,2.1-4.71,4.85-4.71,8.28,0,2.28.9,4.28,2.71,6,1.81,1.71,4.43,2.85,7.85,3.43l31.69,5.14c12.37,2.1,21.79,6.28,28.27,12.56,6.47,6.28,9.71,14.85,9.71,25.7s-2.71,19.27-8.14,26.41c-5.42,7.14-12.95,12.66-22.56,16.56-9.61,3.9-20.89,5.85-33.84,5.85Z"/>
    <path class="st4" d="M1322.97,588.64c-17.13,0-31.94-3.05-44.4-9.14-12.47-6.09-22.03-14.66-28.7-25.7-6.67-11.04-9.99-23.99-9.99-38.83s3.19-27.22,9.57-38.26c6.38-11.04,15.13-19.7,26.27-25.98,11.13-6.28,23.84-9.42,38.12-9.42s26.55,3,36.83,8.99c10.28,6,18.23,14.42,23.84,25.27,5.61,10.85,8.42,23.8,8.42,38.83v11.14h-100.51v-24.27h63.1l-4.28,3.71c0-10.47-2.14-18.18-6.43-23.13-4.28-4.95-10.52-7.42-18.7-7.42-5.9,0-11.04,1.38-15.42,4.14-4.38,2.76-7.66,6.81-9.85,12.14-2.19,5.33-3.28,11.99-3.28,19.99v2.29c0,9.14,1.28,16.47,3.85,21.99,2.57,5.52,6.61,9.52,12.13,11.99,5.52,2.48,12.46,3.71,20.84,3.71,7.23,0,14.75-1.04,22.56-3.14,7.8-2.09,14.85-5.33,21.13-9.71l12.56,33.98c-7.24,4.95-16.04,8.99-26.41,12.13-10.38,3.14-20.8,4.71-31.27,4.71Z"/>
    <path class="st10" d="M1473.71,589.01c-14.36,0-26.76-3.07-37.2-9.2-10.44-6.13-18.53-14.79-24.27-25.98-5.75-11.19-8.62-24.37-8.62-39.55s2.87-27.92,8.62-38.82c5.75-10.9,13.83-19.31,24.27-25.25,10.44-5.93,22.84-8.9,37.2-8.9,8.81,0,17.52,1.51,26.14,4.52,8.62,3.02,15.7,7.35,21.26,12.99l-9.19,20.73c-5.17-5.06-11.01-8.8-17.52-11.24-6.51-2.43-12.64-3.65-18.38-3.65-13.6,0-24.08,4.33-31.45,12.99-7.37,8.66-11.06,20.97-11.06,36.93s3.68,28.46,11.06,37.51c7.37,9.05,17.85,13.57,31.45,13.57,5.74,0,11.87-1.21,18.38-3.65,6.51-2.43,12.35-6.18,17.52-11.24l9.19,21.02c-5.56,5.25-12.69,9.44-21.4,12.55-8.72,3.11-17.38,4.67-26,4.67Z"/>
    <path class="st10" d="M1589.75,589.01c-9.77,0-18.53-1.94-26.28-5.83-7.76-3.88-13.84-9.13-18.24-15.73-4.41-6.6-6.61-14.08-6.61-22.43,0-10.49,2.63-18.79,7.9-24.91,5.26-6.12,13.98-10.49,26.14-13.11,12.16-2.62,28.58-3.93,49.26-3.93h13.5v18.06h-13.21c-10.34,0-19.06.39-26.14,1.16-7.09.78-12.74,1.99-16.95,3.64-4.21,1.65-7.23,3.93-9.05,6.85-1.82,2.91-2.73,6.41-2.73,10.49,0,7.38,2.49,13.36,7.47,17.92,4.98,4.57,11.87,6.85,20.68,6.85,7.08,0,13.31-1.7,18.67-5.1,5.36-3.4,9.62-8.01,12.78-13.84,3.16-5.83,4.74-12.53,4.74-20.1v-33.5c0-11.07-2.3-19.03-6.89-23.89-4.6-4.85-12.16-7.28-22.69-7.28-8.04,0-16.09,1.22-24.13,3.64-8.04,2.43-16.28,6.26-24.7,11.51l-8.91-20.69c4.98-3.5,10.72-6.51,17.24-9.03,6.51-2.52,13.36-4.52,20.54-5.97,7.18-1.46,14.12-2.19,20.83-2.19,12.83,0,23.41,2.04,31.74,6.12,8.33,4.08,14.51,10.3,18.53,18.65,4.02,8.35,6.03,19.13,6.03,32.34.05,30.11.1,60.21.14,90.32h-27.5c.02-11.46.05-22.92.07-34.38h2.58c-1.53,7.19-4.36,13.36-8.47,18.5-4.12,5.15-9.24,9.08-15.37,11.8-6.13,2.72-13.12,4.08-20.97,4.08Z"/>
    <path class="st10" d="M1688.03,589.01c-.29-49.28-.58-98.55-.86-147.83h28.04c.1,12.49.2,24.98.31,37.47h-2.87c3.06-11.49,8.57-20.2,16.52-26.14,7.94-5.93,18.53-9.38,31.74-10.34l9.48-.57,2.01,24.7-17.52,1.72c-12.45,1.15-21.93,5.08-28.44,11.78-6.51,6.7-9.77,15.9-9.77,27.57.31,27.21.61,54.43.92,81.64h-29.55Z"/>
    <path class="st10" d="M1855.68,589.01c-15.48,0-28.79-2.97-39.91-8.91-11.13-5.94-19.74-14.41-25.83-25.42-6.1-11-9.14-24.1-9.14-39.29s3-27.76,9-38.86c6-11.1,14.22-19.77,24.67-26,10.45-6.23,22.35-9.35,35.7-9.35s24.43,2.88,33.82,8.62c9.38,5.75,16.59,13.88,21.63,24.39,5.03,10.52,7.55,23.08,7.55,37.69v9.93h-109.14v-18.11h89.41l-4.94,4.09c0-14.61-3.19-25.9-9.58-33.89-6.39-7.98-15.58-11.98-27.58-11.98-9.1,0-16.79,2.14-23.08,6.43-6.29,4.29-11.08,10.22-14.37,17.82-3.29,7.6-4.94,16.46-4.94,26.59v1.75c0,11.3,1.79,20.79,5.37,28.49,3.58,7.7,8.85,13.49,15.82,17.38,6.97,3.9,15.58,5.84,25.83,5.84,8.13,0,16.11-1.31,23.95-3.94,7.84-2.63,15.24-6.77,22.21-12.42l8.71,20.45c-6.38,5.84-14.61,10.42-24.67,13.73-10.07,3.31-20.23,4.97-30.48,4.97Z"/>
  </g>
  <g id="Linhas" class="st8">
    <line class="st0" x1="737.93" y1="397.49" x2="1907.9" y2="397.49"/>
    <line class="st0" x1="737.93" y1="567.41" x2="1907.9" y2="567.41"/>
    <line class="st0" x1="739.61" y1="595.73" x2="1909.59" y2="595.73"/>
    <line class="st0" x1="737.93" y1="624.05" x2="1907.9" y2="624.05"/>
    <line class="st0" x1="737.93" y1="482.45" x2="1907.9" y2="482.45"/>
    <line class="st0" x1="718.64" y1="652.37" x2="1888.62" y2="652.37"/>
    <line class="st0" x1="76.7" y1="736.2" x2="1888.62" y2="737.33"/>
    <line class="st0" x1="121.91" y1="305.33" x2="1909.59" y2="312.53"/>
    <line class="st0" x1="739.61" y1="397.49" x2="1909.59" y2="397.49"/>
  </g>
</svg>